<svg class="logo" width="48" height="48" viewBox="0 0 48 48" fill="none" xmlns="http://www.w3.org/2000/svg" aria-label="Allfeat logo"><path fill="currentColor" d="M42.495 20.206a4.986 4.986 0 1 0-9.211-3.813 4.986 4.986 0 0 0 9.21 3.813ZM10 23.28a4.985 4.985 0 1 0 .001-9.97 4.985 4.985 0 0 0 0 9.97ZM23.87 47.458a4.985 4.985 0 1 0 .002-9.97 4.985 4.985 0 0 0-.001 9.97Z"></path><path fill="currentColor" d="M44.286 29.73c-1.533-.888-3.246-1.139-4.872-.895-1.663.244-3.61 1.48-5.796.217-1.757-1.018-2.02-2.985-2.481-4.497a7.338 7.338 0 0 0-2.114-3.472c-1.052-1.072-2.367-2.237-2.367-4.09 0-2.524 2.043-3.592 3.088-4.907 1.019-1.296 1.653-2.905 1.653-4.681A7.405 7.405 0 0 0 23.991 0a7.405 7.405 0 0 0-7.406 7.405c0 1.756.564 3.288 1.636 4.637.932 1.175 3.116 2.731 3.116 4.941 0 2.07-1.837 3.289-3.082 4.881a8.4 8.4 0 0 0-1.139 1.907c-.678 1.549-.678 4.036-2.741 5.221-2.184 1.262-4.134.027-5.797-.217-1.626-.244-3.342.01-4.872.895C.16 31.73-1.052 36.254.995 39.796a7.402 7.402 0 0 0 10.12 2.704c1.523-.878 2.568-2.13 3.203-3.733.547-1.392.808-4.063 2.725-5.168 1.539-.888 3.218-.287 4.941.077.054.017.104.027.157.043.017 0 .034.01.044.01l.243.054c.06.01.12.027.184.033.027 0 .054.01.07.01.428.077.872.12 1.323.12h.19c.07 0 .14 0 .217-.01.21-.01.427-.026.634-.053 2.054-.254 4.08-1.305 5.917-.244 1.913 1.105 2.177 3.776 2.725 5.168.634 1.603 1.68 2.855 3.202 3.733a7.42 7.42 0 0 0 10.12-2.704c2.044-3.532.819-8.066-2.724-10.11v.004Z"></path></svg>